<svg width="195" height="32" viewBox="0 0 195 32" fill="none" xmlns="http://www.w3.org/2000/svg">
<g clip-path="url(#clip0_3391_5966)">
<path d="M180.316 2.3689V1.34375H186.293V2.3689H183.561L183.902 2.19805V8.86155H182.707V2.02719L182.878 2.19805H180.316V2.3689ZM186.976 1.34375H188.683L191.074 6.12781H190.903L193.294 1.34375H194.83V8.69069H193.635V2.53976H193.806L191.245 7.8364H190.562L188 2.53976H188.171V8.69069H186.976V1.34375Z" fill="white"/>
<path d="M0 25.1137L4.78108 23.2343C5.29334 25.1137 6.83012 26.6515 9.04991 26.6515C10.5867 26.6515 11.6112 25.7972 11.6112 24.772C11.6112 21.5257 0.683012 23.7469 0.683012 15.8873C0.683012 12.641 3.41506 10.0781 8.02539 10.0781C12.2942 10.0781 15.7093 12.1284 16.563 15.033L11.9527 17.0834C11.4404 15.2039 9.90367 14.3496 8.36689 14.3496C7.00087 14.3496 6.14711 14.8622 6.14711 15.8873C6.14711 19.1337 17.0753 16.3999 17.0753 24.772C17.0753 28.3601 13.831 31.2647 9.04991 31.2647C4.09807 31.2647 1.02452 28.1892 0 25.1137Z" fill="white"/>
<path d="M19.4648 20.6714C19.4648 14.5205 23.9044 10.0781 30.2223 10.0781C36.5401 10.0781 40.9797 14.5205 40.9797 20.6714C40.9797 26.8223 36.3694 31.2647 30.2223 31.2647C23.9044 31.2647 19.4648 26.6515 19.4648 20.6714ZM35.1741 20.6714C35.1741 17.4251 33.2958 15.2039 30.393 15.2039C27.4902 15.2039 25.4412 17.4251 25.4412 20.6714C25.4412 23.9177 27.3195 26.1389 30.393 26.1389C33.1251 26.1389 35.1741 23.9177 35.1741 20.6714Z" fill="white"/>
<path d="M45.9318 15.3767H42.6875V10.4217H45.9318V8.884C45.9318 3.92907 49.3469 1.19531 53.7864 1.19531C54.9817 1.19531 56.0062 1.36617 57.0307 1.70789L56.6892 6.49197C56.0062 6.15025 55.3232 5.97939 54.6402 5.97939C52.9327 5.97939 52.0789 7.00455 52.0789 8.884V10.2509H56.6892V15.3767H52.0789V30.9249H46.1026V15.3767H45.9318Z" fill="white"/>
<path d="M72.5698 10.4219V15.3768H67.618V23.0655C67.618 24.9449 68.6425 25.9701 70.0085 25.9701C70.6915 25.9701 71.716 25.7992 72.399 25.4575L72.7405 30.5833C71.716 30.925 70.6915 31.0959 69.3255 31.0959C64.8859 31.0959 61.4709 28.7038 61.4709 23.7489V15.3768H58.2266V10.4219H72.5698Z" fill="#00AB0C"/>
<path d="M73.9375 10.4219H80.5969L84.3534 23.0655L87.9393 10.4219H94.5986L87.0855 30.925H81.1091L73.9375 10.4219Z" fill="white"/>
<path d="M115.941 22.7217H101.769C102.281 24.772 103.818 25.7972 106.038 25.7972C107.745 25.7972 108.94 24.9429 109.453 23.576L115.771 25.2846C114.575 29.0435 110.819 31.2647 105.867 31.2647C98.5244 31.2647 95.1094 25.4555 95.1094 20.6714C95.1094 15.8873 98.0122 10.0781 105.355 10.0781C113.038 10.0781 116.112 15.8873 116.112 20.1588C115.941 21.184 115.941 22.2091 115.941 22.7217ZM108.77 17.9376C108.599 16.2291 107.574 14.8622 105.355 14.8622C103.476 14.8622 102.281 15.8873 101.769 17.9376H108.77Z" fill="white"/>
<path d="M119.354 10.4198H126.014V12.8119C127.209 11.2741 129.429 10.0781 131.99 10.0781C136.6 10.0781 139.503 12.9827 139.503 17.5959V30.923H132.844V19.4754C132.844 17.4251 131.649 16.0582 129.6 16.0582C127.038 16.0582 125.843 18.1085 125.843 22.0383V31.0938H119.184V10.4198H119.354Z" fill="white"/>
<path d="M143.09 20.6714C143.09 14.5205 147.529 10.0781 153.677 10.0781C159.311 10.0781 163.239 12.8119 163.922 17.5959L157.433 18.7919C157.092 16.9125 155.896 15.7165 154.018 15.7165C151.627 15.7165 150.091 17.5959 150.091 20.6714C150.091 23.576 151.627 25.6263 154.018 25.6263C155.896 25.6263 157.092 24.6012 157.433 22.8926L163.922 24.2594C163.239 28.5309 159.311 31.2647 153.677 31.2647C147.359 31.2647 143.09 26.8223 143.09 20.6714Z" fill="white"/>
<path d="M187.144 22.7217H172.972C173.484 24.772 175.021 25.7972 177.241 25.7972C178.948 25.7972 180.144 24.9429 180.656 23.576L186.974 25.2846C185.778 29.0435 182.022 31.2647 177.07 31.2647C169.728 31.2647 166.312 25.4555 166.312 20.6714C166.312 15.8873 169.215 10.0781 176.558 10.0781C184.242 10.0781 187.315 15.8873 187.315 20.1588C187.315 21.184 187.315 22.2091 187.144 22.7217ZM179.973 17.9376C179.802 16.2291 178.777 14.8622 176.558 14.8622C174.679 14.8622 173.484 15.8873 172.972 17.9376H179.973Z" fill="white"/>
<path d="M157.265 22.7266H163.924C163.924 22.7266 163.924 23.5809 163.924 24.0934L157.094 24.2643L157.265 22.7266Z" fill="white"/>
</g>
<defs>
<clipPath id="clip0_3391_5966">
<rect width="195" height="31.2673" fill="white"/>
</clipPath>
</defs>
</svg>
